<svg width="14" height="15" viewBox="0 0 14 15" fill="none" xmlns="http://www.w3.org/2000/svg">
<g clip-path="url(#clip0_6419_97)">
<path d="M6.2667 6.00001H7.40004V4.30001H9.10004V3.16667H7.40004V1.46667H6.2667V3.16667H4.5667V4.30001H6.2667V6.00001ZM4.00004 11.1C3.3767 11.1 2.87237 11.61 2.87237 12.2333C2.87237 12.8567 3.3767 13.3667 4.00004 13.3667C4.62337 13.3667 5.13337 12.8567 5.13337 12.2333C5.13337 11.61 4.62337 11.1 4.00004 11.1ZM9.66671 11.1C9.04337 11.1 8.53904 11.61 8.53904 12.2333C8.53904 12.8567 9.04337 13.3667 9.66671 13.3667C10.29 13.3667 10.8 12.8567 10.8 12.2333C10.8 11.61 10.29 11.1 9.66671 11.1ZM4.09637 9.25834L4.11337 9.19034L4.62337 8.26668H8.84504C9.27004 8.26668 9.64404 8.03434 9.83671 7.68301L12.024 3.71068L11.038 3.16667H11.0324L10.409 4.30001L8.84504 7.13334H4.86704L4.79337 6.98034L3.52404 4.30001L2.9857 3.16667L2.45304 2.03334H0.600037V3.16667H1.73337L3.77337 7.46768L3.00837 8.85601C2.9177 9.01468 2.8667 9.20168 2.8667 9.40001C2.8667 10.0233 3.3767 10.5333 4.00004 10.5333H10.8V9.40001H4.23804C4.16437 9.40001 4.09637 9.33768 4.09637 9.25834Z" fill="white"/>
</g>
<defs>
<clipPath id="clip0_6419_97">
<rect width="13.6" height="13.6" fill="white" transform="translate(0.0333862 0.899994)"/>
</clipPath>
</defs>
</svg>
